<svg height="512" viewBox="0 0 128 128" width="512" xmlns="http://www.w3.org/2000/svg"><g><path d="m31.345 66.158-10.53-2.792a1.75 1.75 0 0 0 -.9 3.383l10.529 2.792a1.75 1.75 0 0 0 .9-3.383z"/><path d="m19.032 84.218 10.425-.192a1.75 1.75 0 1 0 -.064-3.5l-10.425.192a1.75 1.75 0 0 0 .031 3.5z"/><path d="m30.223 95.469-10.246 3.274a1.75 1.75 0 1 0 1.064 3.334l10.246-3.277a1.75 1.75 0 1 0 -1.064-3.334z"/><path d="m96.419 69.6a1.742 1.742 0 0 0 .449-.059l10.532-2.792a1.75 1.75 0 1 0 -.9-3.383l-10.528 2.792a1.75 1.75 0 0 0 .447 3.442z"/><path d="m108.349 80.719-10.425-.192h-.033a1.75 1.75 0 0 0 -.032 3.5l10.425.192h.033a1.75 1.75 0 0 0 .032-3.5z"/><path d="m107.34 98.743-10.246-3.274a1.75 1.75 0 1 0 -1.065 3.331l10.246 3.274a1.75 1.75 0 0 0 2.2-1.135 1.749 1.749 0 0 0 -1.135-2.196z"/><path d="m56.567 94.489h14.866a1.751 1.751 0 0 0 1.75-1.75v-10.906c0-6.568-3.586-8.318-7.738-10.345l-.673-.33a1.754 1.754 0 0 0 -1.545 0l-.672.33c-4.152 2.027-7.738 3.777-7.738 10.345v10.906a1.751 1.751 0 0 0 1.75 1.75zm1.75-12.656c0-4.349 1.665-5.194 5.683-7.156 4.018 1.962 5.683 2.807 5.683 7.156v9.156h-11.366z"/><path d="m84.084 50.939a20.182 20.182 0 0 0 -18.334-18.393v-2.069a6.685 6.685 0 0 0 3.01-1.735 1.75 1.75 0 1 0 -2.475-2.475 3.231 3.231 0 1 1 -2.285-5.517 1.75 1.75 0 0 0 0-3.5 6.728 6.728 0 0 0 -1.75 13.225v2.071a20.182 20.182 0 0 0 -18.334 18.393 6.386 6.386 0 0 0 -5.538 6.318v.161a6.384 6.384 0 0 0 5.452 6.305v45.277a1.75 1.75 0 0 0 1.75 1.75h36.84a1.75 1.75 0 0 0 1.75-1.75v-45.277a6.384 6.384 0 0 0 5.452-6.3v-.161a6.386 6.386 0 0 0 -5.538-6.323zm-20.084-14.982a16.694 16.694 0 0 1 16.579 14.92h-33.158a16.694 16.694 0 0 1 16.579-14.92zm16.67 71.293h-33.34v-43.45h33.34zm5.452-49.832a2.883 2.883 0 0 1 -2.88 2.88h-38.484a2.883 2.883 0 0 1 -2.88-2.88v-.161a2.883 2.883 0 0 1 2.88-2.88h38.484a2.883 2.883 0 0 1 2.88 2.88z"/></g></svg>