<?xml version="1.0" encoding="UTF-8"?>
<svg xmlns="http://www.w3.org/2000/svg" width="512" height="512" viewBox="0 0 128 128">
<g><path d="M126.25,45.857h-5.586l.718-1.742a10.72,10.72,0,0,0-2.337-11.7l-4.951-4.952V21.439a1.75,1.75,0,1,0-3.5,0v6.025l-4.952,4.952a10.72,10.72,0,0,0-2.337,11.7l.718,1.742H98.438a1.75,1.75,0,0,0-1.75,1.75V58a1.75,1.75,0,0,0,1.75,1.75H102.5V71.064H94.75V64.439A1.751,1.751,0,0,0,93,62.689H89.3a20.593,20.593,0,0,0-.455-23.462A34.031,34.031,0,0,0,72.333,26.936l-1.928-.69a11.915,11.915,0,0,0-.4-10.782L65.527,7.457a1.749,1.749,0,0,0-3.054,0l-4.479,8.007a11.915,11.915,0,0,0-.4,10.782l-1.928.69A34.031,34.031,0,0,0,39.158,39.227,20.594,20.594,0,0,0,38.7,62.689H35a1.751,1.751,0,0,0-1.75,1.75v6.625H25.5V59.752h4.063A1.751,1.751,0,0,0,31.313,58v-10.4a1.751,1.751,0,0,0-1.75-1.75H23.976l.719-1.742a10.721,10.721,0,0,0-2.337-11.7l-4.952-4.952V21.439a1.75,1.75,0,1,0-3.5,0v6.025L8.955,32.416a10.72,10.72,0,0,0-2.337,11.7l.718,1.742H1.75A1.751,1.751,0,0,0,0,47.607V58a1.751,1.751,0,0,0,1.75,1.75H5.813v59.937a1.75,1.75,0,0,0,1.75,1.75H120.437a1.75,1.75,0,0,0,1.75-1.75V59.752h4.063A1.751,1.751,0,0,0,128,58v-10.4A1.751,1.751,0,0,0,126.25,45.857Zm-19.71-3.076a7.232,7.232,0,0,1,1.577-7.89l4.227-4.227,4.227,4.227a7.23,7.23,0,0,1,1.576,7.89l-1.269,3.076h-9.069ZM61.049,17.172,64,11.9l2.951,5.276a8.4,8.4,0,0,1,.147,7.891l-2.509-.9a1.752,1.752,0,0,0-1.178,0l-2.509.9A8.4,8.4,0,0,1,61.049,17.172ZM42.033,41.223A30.52,30.52,0,0,1,56.845,30.232L64,27.672l7.155,2.56A30.52,30.52,0,0,1,85.967,41.223a17.32,17.32,0,0,1-1,21.466H43.035A17.32,17.32,0,0,1,42.033,41.223ZM36.75,66.189h54.5v4.875H36.75ZM9.853,42.781a7.23,7.23,0,0,1,1.576-7.89l4.227-4.227,4.227,4.227a7.23,7.23,0,0,1,1.576,7.89l-1.268,3.076H11.122ZM3.5,49.357H27.813v6.9H3.5Zm5.813,10.4H22v58.187H9.313ZM25.5,74.564h77v43.375H99.215V104.724a12.719,12.719,0,0,0-4.01-9.249L91.366,91.88a1.752,1.752,0,0,0-2.392,0l-3.839,3.595a12.719,12.719,0,0,0-4.01,9.249v13.215H76.438V97.766A17.815,17.815,0,0,0,70.82,84.809L65.2,79.543a1.75,1.75,0,0,0-2.392,0L57.18,84.809a17.814,17.814,0,0,0-5.617,12.957v20.173H46.875V104.724a12.719,12.719,0,0,0-4.01-9.249L39.026,91.88a1.752,1.752,0,0,0-2.392,0L32.8,95.475a12.719,12.719,0,0,0-4.01,9.249v13.215H25.5Zm6.785,43.375V104.724a9.2,9.2,0,0,1,2.9-6.694l2.642-2.475,2.642,2.475a9.2,9.2,0,0,1,2.9,6.694v13.215Zm22.778,0V97.766a14.3,14.3,0,0,1,4.509-10.4L64,83.218l4.428,4.146a14.3,14.3,0,0,1,4.51,10.4v20.173Zm29.562,0V104.724a9.2,9.2,0,0,1,2.9-6.694l2.642-2.475,2.643,2.475a9.2,9.2,0,0,1,2.9,6.694v13.215Zm34.062,0H106V59.752h12.687ZM124.5,56.252H100.187v-6.9H124.5Z"/><path d="M69.639,34.469a1.75,1.75,0,0,0-1.179,3.3A22.462,22.462,0,0,1,79.4,45.786a1.75,1.75,0,1,0,2.875-2A25.985,25.985,0,0,0,69.639,34.469Z"/></g></svg>
